<svg xmlns:dc="http://purl.org/dc/elements/1.1/" xmlns:cc="http://creativecommons.org/ns#" xmlns:rdf="http://www.w3.org/1999/02/22-rdf-syntax-ns#" xmlns:svg="http://www.w3.org/2000/svg" xmlns="http://www.w3.org/2000/svg" xmlns:xlink="http://www.w3.org/1999/xlink" xmlns:sodipodi="http://sodipodi.sourceforge.net/DTD/sodipodi-0.dtd" xmlns:inkscape="http://www.inkscape.org/namespaces/inkscape" version="1.0" width="424.43857" height="392.92975" id="svg3570" sodipodi:version="0.32" inkscape:version="0.46" sodipodi:docname="film reel.svg" inkscape:output_extension="org.inkscape.output.svg.inkscape">
  <metadata id="metadata126">
    <rdf:RDF>
      <cc:Work rdf:about="">
        <dc:format>image/svg+xml</dc:format>
        <dc:type rdf:resource="http://purl.org/dc/dcmitype/StillImage"/>
        <dc:creator>
          <cc:Agent>
            <dc:title>Sheikh Tuhin</dc:title>
          </cc:Agent>
        </dc:creator>
        <cc:license rdf:resource="http://creativecommons.org/licenses/publicdomain/"/>
      </cc:Work>
      <cc:License rdf:about="http://creativecommons.org/licenses/publicdomain/">
        <cc:permits rdf:resource="http://creativecommons.org/ns#Reproduction"/>
        <cc:permits rdf:resource="http://creativecommons.org/ns#Distribution"/>
        <cc:permits rdf:resource="http://creativecommons.org/ns#DerivativeWorks"/>
      </cc:License>
    </rdf:RDF>
  </metadata>
  <sodipodi:namedview inkscape:window-height="480" inkscape:window-width="640" inkscape:pageshadow="2" inkscape:pageopacity="0.0" guidetolerance="10.0" gridtolerance="10.0" objecttolerance="10.0" borderopacity="1.0" bordercolor="#666666" pagecolor="#ffffff" id="base" showgrid="false"/>
  <defs id="defs3572">
    <inkscape:perspective sodipodi:type="inkscape:persp3d" inkscape:vp_x="0 : 196.46487 : 1" inkscape:vp_y="0 : 1000 : 0" inkscape:vp_z="424.43857 : 196.46487 : 1" inkscape:persp3d-origin="212.21928 : 130.97658 : 1" id="perspective128"/>
    <linearGradient id="linearGradient3474">
      <stop id="stop3476" style="stop-color:#000000;stop-opacity:1" offset="0"/>
      <stop id="stop3478" style="stop-color:#999999;stop-opacity:0" offset="1"/>
    </linearGradient>
    <linearGradient x1="395.01398" y1="749.01337" x2="279.94836" y2="624.82861" id="linearGradient23343" xlink:href="#linearGradient3474" gradientUnits="userSpaceOnUse"/>
    <linearGradient id="linearGradient4490">
      <stop id="stop4492" style="stop-color:#00ffff;stop-opacity:1" offset="0"/>
      <stop id="stop4494" style="stop-color:#008080;stop-opacity:1" offset="1"/>
    </linearGradient>
    <radialGradient cx="-240" cy="1276.3508" r="33.194832" fx="-240" fy="1276.3508" id="radialGradient23341" xlink:href="#linearGradient4490" gradientUnits="userSpaceOnUse" gradientTransform="matrix(0.1192746,0.4643315,-0.5709968,0.1466742,517.41812,1213.0941)"/>
    <radialGradient cx="-288.27811" cy="1203.7058" r="61.380001" fx="-288.27811" fy="1203.7058" id="radialGradient23337" xlink:href="#linearGradient4498" gradientUnits="userSpaceOnUse" gradientTransform="matrix(0.4644707,1.1304615,-1.0381695,0.4265497,1095.5473,1030.3091)"/>
    <radialGradient cx="-288.27811" cy="1203.7058" r="61.380001" fx="-288.27811" fy="1203.7058" id="radialGradient23335" xlink:href="#linearGradient4498" gradientUnits="userSpaceOnUse" gradientTransform="matrix(0.4644707,1.1304615,-1.0381695,0.4265497,1095.5473,1030.3091)"/>
    <radialGradient cx="-288.27811" cy="1203.7058" r="61.380001" fx="-288.27811" fy="1203.7058" id="radialGradient23333" xlink:href="#linearGradient4498" gradientUnits="userSpaceOnUse" gradientTransform="matrix(0.4644707,1.1304615,-1.0381695,0.4265497,1095.5473,1030.3091)"/>
    <radialGradient cx="-288.27811" cy="1203.7058" r="61.380001" fx="-288.27811" fy="1203.7058" id="radialGradient23331" xlink:href="#linearGradient4498" gradientUnits="userSpaceOnUse" gradientTransform="matrix(0.4644707,1.1304615,-1.0381695,0.4265497,1095.5473,1030.3091)"/>
    <linearGradient id="linearGradient4468">
      <stop id="stop4470" style="stop-color:#999999;stop-opacity:1" offset="0"/>
      <stop id="stop4472" style="stop-color:#333333;stop-opacity:1" offset="1"/>
    </linearGradient>
    <radialGradient cx="351.22293" cy="563.32941" r="214" fx="351.22293" fy="563.32941" id="radialGradient23329" xlink:href="#linearGradient4468" gradientUnits="userSpaceOnUse" gradientTransform="matrix(0.2485482,1.3849009,-1.2722004,0.2283221,981.97397,-28.692851)"/>
    <linearGradient id="linearGradient3387">
      <stop id="stop3389" style="stop-color:#999999;stop-opacity:1" offset="0"/>
      <stop id="stop3391" style="stop-color:#333333;stop-opacity:0" offset="1"/>
    </linearGradient>
    <radialGradient cx="454.03748" cy="500.6058" r="214" fx="454.03748" fy="500.6058" id="radialGradient23327" xlink:href="#linearGradient3387" gradientUnits="userSpaceOnUse" gradientTransform="matrix(0.1561557,0.3110578,-0.3038955,0.1525602,449.2331,483.26051)"/>
    <linearGradient id="linearGradient3635">
      <stop id="stop3637" style="stop-color:#ac9393;stop-opacity:1" offset="0"/>
      <stop id="stop3639" style="stop-color:#e3dbdb;stop-opacity:1" offset="1"/>
    </linearGradient>
    <linearGradient x1="421.87036" y1="758.66425" x2="418.20828" y2="640.01318" id="linearGradient3669" xlink:href="#linearGradient3635" gradientUnits="userSpaceOnUse" gradientTransform="translate(-27.099308,-208.73793)"/>
    <linearGradient x1="373.53104" y1="492.79803" x2="579.10693" y2="490.6008" id="linearGradient3831" xlink:href="#linearGradient3659" gradientUnits="userSpaceOnUse" gradientTransform="matrix(0.956089,0,0,1,-0.5708377,244)"/>
    <linearGradient id="linearGradient3659">
      <stop id="stop3661" style="stop-color:#e6e6e6;stop-opacity:1" offset="0"/>
      <stop id="stop3663" style="stop-color:#ffffff;stop-opacity:1" offset="1"/>
    </linearGradient>
    <linearGradient x1="373.53104" y1="492.79803" x2="579.10693" y2="490.6008" id="linearGradient3829" xlink:href="#linearGradient3659" gradientUnits="userSpaceOnUse" gradientTransform="matrix(0.956089,0,0,1,-4.3951937,240)"/>
    <linearGradient id="linearGradient2551">
      <stop id="stop2553" style="stop-color:#ffffff;stop-opacity:1" offset="0"/>
      <stop id="stop2555" style="stop-color:#000080;stop-opacity:1" offset="1"/>
    </linearGradient>
    <radialGradient cx="369.11353" cy="372.54791" r="200.07143" fx="369.11353" fy="372.54791" id="radialGradient2678" xlink:href="#linearGradient2551" gradientUnits="userSpaceOnUse" gradientTransform="matrix(3.7999786e-2,1.4957947,-1.4637417,3.7185499e-2,990.55535,-217.10617)"/>
    <linearGradient id="linearGradient2389">
      <stop id="stop2391" style="stop-color:#000000;stop-opacity:1" offset="0"/>
      <stop id="stop2393" style="stop-color:#ffffff;stop-opacity:0" offset="1"/>
    </linearGradient>
    <radialGradient cx="643.36072" cy="432.33716" r="231.39973" fx="643.36072" fy="432.33716" id="radialGradient2682" xlink:href="#linearGradient2389" gradientUnits="userSpaceOnUse" gradientTransform="matrix(-3.262263,-1.8009147e-2,1.6645795e-2,-3.0150437,2590.9945,1657.7437)"/>
    <linearGradient id="linearGradient3643">
      <stop id="stop3645" style="stop-color:#c8b7b7;stop-opacity:1" offset="0"/>
      <stop id="stop3647" style="stop-color:#483737;stop-opacity:1" offset="1"/>
    </linearGradient>
    <linearGradient x1="259.27448" y1="653.92908" x2="272.45795" y2="998.16357" id="linearGradient3672" xlink:href="#linearGradient3643" gradientUnits="userSpaceOnUse" gradientTransform="matrix(0.3912405,0,0,0.3912405,289.41466,160.94278)"/>
    <linearGradient id="linearGradient4917">
      <stop id="stop4919" style="stop-color:#000000;stop-opacity:1" offset="0"/>
      <stop id="stop4921" style="stop-color:#f2f2f2;stop-opacity:1" offset="1"/>
    </linearGradient>
    <linearGradient id="linearGradient4893">
      <stop id="stop4895" style="stop-color:#000000;stop-opacity:1" offset="0"/>
      <stop id="stop4897" style="stop-color:#000000;stop-opacity:0" offset="1"/>
    </linearGradient>
    <linearGradient id="linearGradient4909">
      <stop id="stop4911" style="stop-color:#000000;stop-opacity:1" offset="0"/>
      <stop id="stop4913" style="stop-color:#cccccc;stop-opacity:1" offset="1"/>
    </linearGradient>
    <linearGradient id="linearGradient4931">
      <stop id="stop4933" style="stop-color:#000000;stop-opacity:1" offset="0"/>
      <stop id="stop4935" style="stop-color:#cccccc;stop-opacity:1" offset="1"/>
    </linearGradient>
    <linearGradient id="linearGradient3939">
      <stop id="stop3941" style="stop-color:#b3b3b3;stop-opacity:1" offset="0"/>
      <stop id="stop3947" style="stop-color:#ffffff;stop-opacity:1" offset="0.5"/>
      <stop id="stop3943" style="stop-color:#808080;stop-opacity:1" offset="1"/>
    </linearGradient>
    <linearGradient id="linearGradient4498">
      <stop id="stop4500" style="stop-color:#c83737;stop-opacity:1" offset="0"/>
      <stop id="stop4502" style="stop-color:#501616;stop-opacity:1" offset="1"/>
    </linearGradient>
    <radialGradient cx="-288.27811" cy="1203.7058" r="61.380001" fx="-288.27811" fy="1203.7058" id="radialGradient23339" xlink:href="#linearGradient4498" gradientUnits="userSpaceOnUse" gradientTransform="matrix(0.4644707,1.1304615,-1.0381695,0.4265497,1095.5473,1030.3091)"/>
    <radialGradient cx="488.89267" cy="588.70575" r="219.20311" fx="488.89267" fy="588.70575" id="radialGradient4633" xlink:href="#linearGradient4931" gradientUnits="userSpaceOnUse" gradientTransform="matrix(-8.0035209e-3,1.2096377,-1.5872404,-1.0502094e-2,1429.2231,7.1996709)"/>
    <radialGradient cx="459.32651" cy="604.53241" r="218.49857" fx="459.32651" fy="604.53241" id="radialGradient4635" xlink:href="#linearGradient4909" gradientUnits="userSpaceOnUse" gradientTransform="matrix(-2.4717924e-8,0.4792097,-0.761379,-2.2833566e-8,965.49485,426.4337)"/>
    <linearGradient x1="507.53687" y1="695.01477" x2="505.21655" y2="435.03162" id="linearGradient4637" xlink:href="#linearGradient4893" gradientUnits="userSpaceOnUse" gradientTransform="matrix(1,0,0,-1,0,1171.1728)"/>
    <radialGradient cx="518.93054" cy="498.96671" r="218.49857" fx="518.93054" fy="498.96671" id="radialGradient4639" xlink:href="#linearGradient4917" gradientUnits="userSpaceOnUse" gradientTransform="matrix(6.8182398e-3,0.7964116,-0.908528,7.7780924e-3,968.71756,124.33984)"/>
    <linearGradient x1="507.53687" y1="695.01477" x2="505.21655" y2="435.03162" id="linearGradient4641" xlink:href="#linearGradient4893" gradientUnits="userSpaceOnUse" gradientTransform="translate(0,6)"/>
    <linearGradient x1="507.53687" y1="695.01477" x2="505.21655" y2="435.03162" id="linearGradient4643" xlink:href="#linearGradient4893" gradientUnits="userSpaceOnUse" gradientTransform="matrix(1,0,0,-1,0,1175.1728)"/>
    <linearGradient x1="507.53687" y1="695.01477" x2="505.21655" y2="435.03162" id="linearGradient4645" xlink:href="#linearGradient4893" gradientUnits="userSpaceOnUse" gradientTransform="translate(0,4)"/>
    <radialGradient cx="-288.27811" cy="1203.7058" r="61.380001" fx="-288.27811" fy="1203.7058" id="radialGradient5435" xlink:href="#linearGradient4498" gradientUnits="userSpaceOnUse" gradientTransform="matrix(0.4644707,1.1304615,-1.0381695,0.4265497,1095.5473,1030.3091)"/>
    <radialGradient inkscape:collect="always" xlink:href="#linearGradient4498" id="radialGradient2564" gradientUnits="userSpaceOnUse" gradientTransform="matrix(0.4644707,1.1304615,-1.0381695,0.4265497,1095.5473,1030.3091)" cx="-288.27811" cy="1203.7058" fx="-288.27811" fy="1203.7058" r="61.380001"/>
    <radialGradient inkscape:collect="always" xlink:href="#linearGradient4498" id="radialGradient2634" gradientUnits="userSpaceOnUse" gradientTransform="matrix(0.4644707,1.1304615,-1.0381695,0.4265497,1095.5473,1030.3091)" cx="-288.27811" cy="1203.7058" fx="-288.27811" fy="1203.7058" r="61.380001"/>
    <radialGradient inkscape:collect="always" xlink:href="#linearGradient4498" id="radialGradient2695" gradientUnits="userSpaceOnUse" gradientTransform="matrix(0.4644707,1.1304615,-1.0381695,0.4265497,1095.5473,1030.3091)" cx="-288.27811" cy="1203.7058" fx="-288.27811" fy="1203.7058" r="61.380001"/>
    <radialGradient inkscape:collect="always" xlink:href="#linearGradient4468" id="radialGradient2876" gradientUnits="userSpaceOnUse" gradientTransform="matrix(0.2485482,1.3849009,-1.2722004,0.2283221,981.97397,-28.692851)" cx="351.22293" cy="563.32941" fx="351.22293" fy="563.32941" r="214"/>
    <radialGradient inkscape:collect="always" xlink:href="#linearGradient4498" id="radialGradient2878" gradientUnits="userSpaceOnUse" gradientTransform="matrix(0.4644707,1.1304615,-1.0381695,0.4265497,1095.5473,1030.3091)" cx="-288.27811" cy="1203.7058" fx="-288.27811" fy="1203.7058" r="61.380001"/>
    <radialGradient inkscape:collect="always" xlink:href="#linearGradient4498" id="radialGradient2880" gradientUnits="userSpaceOnUse" gradientTransform="matrix(0.4644707,1.1304615,-1.0381695,0.4265497,1095.5473,1030.3091)" cx="-288.27811" cy="1203.7058" fx="-288.27811" fy="1203.7058" r="61.380001"/>
    <radialGradient inkscape:collect="always" xlink:href="#linearGradient4498" id="radialGradient2882" gradientUnits="userSpaceOnUse" gradientTransform="matrix(0.4644707,1.1304615,-1.0381695,0.4265497,1095.5473,1030.3091)" cx="-288.27811" cy="1203.7058" fx="-288.27811" fy="1203.7058" r="61.380001"/>
    <radialGradient inkscape:collect="always" xlink:href="#linearGradient4498" id="radialGradient2884" gradientUnits="userSpaceOnUse" gradientTransform="matrix(0.4644707,1.1304615,-1.0381695,0.4265497,1095.5473,1030.3091)" cx="-288.27811" cy="1203.7058" fx="-288.27811" fy="1203.7058" r="61.380001"/>
    <radialGradient inkscape:collect="always" xlink:href="#linearGradient4498" id="radialGradient2886" gradientUnits="userSpaceOnUse" gradientTransform="matrix(0.4644707,1.1304615,-1.0381695,0.4265497,1095.5473,1030.3091)" cx="-288.27811" cy="1203.7058" fx="-288.27811" fy="1203.7058" r="61.380001"/>
    <radialGradient inkscape:collect="always" xlink:href="#linearGradient3387" id="radialGradient2934" gradientUnits="userSpaceOnUse" gradientTransform="matrix(0.4088569,0.8144316,-0.7956788,0.399443,446.6342,-366.41017)" cx="454.03748" cy="500.6058" fx="454.03748" fy="500.6058" r="214"/>
    <radialGradient inkscape:collect="always" xlink:href="#linearGradient4490" id="radialGradient2955" gradientUnits="userSpaceOnUse" gradientTransform="matrix(0.3122925,1.2157427,-1.4950207,0.3840319,2196.1105,130.60722)" cx="-240" cy="1276.3508" fx="-240" fy="1276.3508" r="33.194832"/>
    <linearGradient inkscape:collect="always" xlink:href="#linearGradient3474" id="linearGradient3110" gradientUnits="userSpaceOnUse" gradientTransform="matrix(2.6182645,0,0,2.6182645,-729.62848,-1627.9564)" x1="395.01398" y1="749.01337" x2="279.94836" y2="624.82861"/>
  </defs>
  <g id="g3113">
    <g id="g3035">
      <path d="M 232.10816,9.4982476 C 216.12505,9.6545056 199.9,11.798786 183.75209,16.125729 C 80.405393,43.817254 19.010677,150.14147 46.702306,253.48777 C 74.393857,356.8346 180.79955,418.22937 284.14617,390.53756 C 387.49271,362.84598 448.88758,256.52182 421.19595,153.17552 C 397.83106,65.976516 318.41655,8.6533336 232.10816,9.4982476 z M 232.2718,28.807948 C 226.54469,28.866702 220.78482,29.233337 215.00762,29.871618 C 212.18534,30.183427 209.3262,30.563363 206.49826,31.017108 C 209.33489,30.560195 212.17668,30.18505 215.00762,29.871618 C 220.79459,29.230928 226.52196,28.864136 232.2718,28.807948 z M 232.43545,28.807948 C 235.27723,28.782812 238.12187,28.857721 240.94481,28.971589 C 245.99578,29.175343 251.02853,29.643174 255.99983,30.280722 C 251.02279,29.643933 246.00204,29.173719 240.94481,28.971589 C 238.11446,28.85848 235.28485,28.781425 232.43545,28.807948 z M 205.18913,31.18075 C 202.66146,31.60593 200.19021,32.112904 197.66162,32.653524 C 200.18298,32.113245 202.67044,31.605904 205.18913,31.18075 z M 266.63653,31.917137 C 269.30069,32.428301 271.94346,33.002224 274.57314,33.635373 C 271.94707,33.003821 269.2971,32.427044 266.63653,31.917137 z M 197.41616,32.735345 C 194.56411,33.349511 191.67407,34.017456 188.82498,34.780864 C 191.66901,34.018792 194.57348,33.348778 197.41616,32.735345 z M 283.40978,36.008175 C 285.86056,36.736314 288.2796,37.547636 290.69183,38.380977 C 288.26606,37.543368 285.87459,36.739378 283.40978,36.008175 z M 169.51528,41.244704 C 165.70845,42.754029 161.95444,44.320196 158.30583,46.072129 C 161.95362,44.318573 165.70937,42.755547 169.51528,41.244704 z M 300.26486,41.981091 C 302.2964,42.818569 304.32246,43.686917 306.3196,44.599356 C 308.44233,45.569187 310.53848,46.573684 312.6198,47.626724 C 310.53296,46.571406 308.44811,45.570967 306.3196,44.599356 C 304.32204,43.687519 302.2969,42.817941 300.26486,41.981091 z M 153.15112,48.690394 C 141.22048,54.916732 130.21615,62.369857 120.25918,70.945642 C 130.20321,62.378864 141.24001,54.913511 153.15112,48.690394 z M 323.6656,53.763281 C 325.23378,54.703605 326.79102,55.638037 328.32938,56.627008 C 326.79552,55.641127 325.22912,54.700777 323.6656,53.763281 z M 385.84938,117.50166 C 387.26191,120.00412 388.64571,122.52347 389.94042,125.11099 C 391.23882,127.7059 392.44699,130.36975 393.62235,133.04761 C 394.60106,135.27745 395.51371,137.55304 396.40426,139.83873 C 395.5108,137.54432 394.60457,135.2857 393.62235,133.04761 C 392.44893,130.37384 391.23643,127.70198 389.94042,125.11099 C 388.6444,122.52001 387.26348,120.00726 385.84938,117.50166 z M 397.30429,142.04789 C 398.22901,144.52045 399.10351,147.04084 399.92255,149.5754 C 400.83792,152.4081 401.67988,155.25889 402.459,158.16658 C 401.68017,155.25997 400.8374,152.407 399.92255,149.5754 C 399.10584,147.04755 398.22602,144.51401 397.30429,142.04789 z M 406.22275,175.59441 C 407.16407,181.41072 407.84071,187.23872 408.18645,193.02223 C 407.84021,187.23853 407.16433,181.41083 406.22275,175.59441 z" id="path2995" style="fill:url(#radialGradient2934);fill-opacity:1;stroke:none;stroke-width:4;stroke-miterlimit:4;stroke-dasharray:none;stroke-dashoffset:0;stroke-opacity:1"/>
      <g id="g4522" transform="matrix(2.6182645,0,0,2.6182645,841.37305,-3045.594)">
        <path d="M 672,714.36218 C 672,832.55112 576.18894,928.36218 458,928.36218 C 339.81106,928.36218 244,832.55112 244,714.36218 C 244,596.17324 339.81106,500.36218 458,500.36218 C 576.18894,500.36218 672,596.17324 672,714.36218 L 672,714.36218 z" transform="matrix(0.300727,-8.0579505e-2,8.0579505e-2,0.300727,-441.28364,1062.4474)" id="path4247" style="fill:url(#radialGradient2876);fill-opacity:1;stroke:none;stroke-width:4;stroke-miterlimit:4;stroke-dasharray:none;stroke-dashoffset:0;stroke-opacity:1"/>
        <g transform="translate(0.5122771,7.7998332e-3)" id="g4484" style="fill-opacity:1;stroke:url(#radialGradient2886)">
          <path d="M -204,1240.3622 C -204,1263.8343 -223.0279,1282.8622 -246.5,1282.8622 C -269.9721,1282.8622 -289,1263.8343 -289,1240.3622 C -289,1216.8901 -269.9721,1197.8622 -246.5,1197.8622 C -223.0279,1197.8622 -204,1216.8901 -204,1240.3622 z" id="path4476" style="opacity:1;fill:none;fill-opacity:1;stroke:url(#radialGradient2878);stroke-width:0.25;stroke-miterlimit:4;stroke-dasharray:none;stroke-dashoffset:0;stroke-opacity:1"/>
          <path d="M -204,1240.3622 C -204,1263.8343 -223.0279,1282.8622 -246.5,1282.8622 C -269.9721,1282.8622 -289,1263.8343 -289,1240.3622 C -289,1216.8901 -269.9721,1197.8622 -246.5,1197.8622 C -223.0279,1197.8622 -204,1216.8901 -204,1240.3622 z" transform="matrix(1.2,0,0,1.2,49.3,-248.07244)" id="path4478" style="opacity:1;fill:none;fill-opacity:1;stroke:url(#radialGradient2880);stroke-width:0.25;stroke-miterlimit:4;stroke-dasharray:none;stroke-dashoffset:0;stroke-opacity:1"/>
          <path d="M -204,1240.3622 C -204,1263.8343 -223.0279,1282.8622 -246.5,1282.8622 C -269.9721,1282.8622 -289,1263.8343 -289,1240.3622 C -289,1216.8901 -269.9721,1197.8622 -246.5,1197.8622 C -223.0279,1197.8622 -204,1216.8901 -204,1240.3622 z" transform="matrix(1.44,0,0,1.44,108.46,-545.75936)" id="path4480" style="opacity:1;fill:none;fill-opacity:1;stroke:url(#radialGradient2882);stroke-width:0.25;stroke-miterlimit:4;stroke-dasharray:none;stroke-dashoffset:0;stroke-opacity:1"/>
          <path d="M -204,1240.3622 C -204,1263.8343 -223.0279,1282.8622 -246.5,1282.8622 C -269.9721,1282.8622 -289,1263.8343 -289,1240.3622 C -289,1216.8901 -269.9721,1197.8622 -246.5,1197.8622 C -223.0279,1197.8622 -204,1216.8901 -204,1240.3622 z" transform="matrix(0.8,0,0,0.8,-49.3,248.07244)" id="path4482" style="opacity:1;fill:none;fill-opacity:1;stroke:url(#radialGradient2884);stroke-width:0.25;stroke-miterlimit:4;stroke-dasharray:none;stroke-dashoffset:0;stroke-opacity:1"/>
        </g>
      </g>
      <path style="fill:url(#radialGradient2955);fill-opacity:1;stroke:none;stroke-width:4;stroke-miterlimit:4;stroke-dasharray:none;stroke-dashoffset:0;stroke-opacity:1" id="path4274" d="M 229.5193,322.2215 C 197.72519,330.74081 170.34938,347.52362 149.07498,369.65084 C 178.56492,378.17486 210.67002,379.04988 242.46371,370.53084 C 274.25738,362.01179 301.62364,345.20122 322.90067,323.07427 C 293.41289,314.54868 261.31339,313.70245 229.5193,322.2215 z"/>
      <path d="M 272.20087,181.95626 C 283.28323,223.31622 258.73839,265.82912 217.37843,276.91149 C 176.01848,287.99385 133.50557,263.44901 122.42321,222.08905 C 111.34085,180.72909 135.88568,138.21619 177.24564,127.13383 C 218.6056,116.05146 261.1185,140.5963 272.20087,181.95626 L 272.20087,181.95626 z" id="path4249" style="fill:#cccccc;fill-opacity:1;stroke:none;stroke-width:4;stroke-miterlimit:4;stroke-dasharray:none;stroke-dashoffset:0;stroke-opacity:1"/>
      <path style="fill:#cccccc;fill-opacity:1;stroke:none;stroke-width:4;stroke-miterlimit:4;stroke-dasharray:none;stroke-dashoffset:0;stroke-opacity:1" id="path4245" d="M 195.47993,8.2025663 C 179.49689,8.3588767 163.27176,10.502974 147.12385,14.829917 C 43.777236,42.521468 -17.617558,148.84552 10.074071,252.19183 C 37.765701,355.53865 144.17132,416.93355 247.51793,389.24174 C 350.86455,361.55019 412.25934,255.22613 384.56772,151.87983 C 361.2029,64.680888 281.78832,7.3576524 195.47993,8.2025663 z M 195.64357,27.512267 C 273.32114,26.751923 344.80243,78.391954 365.83076,156.87077 C 390.75321,249.88278 335.45701,345.58244 242.44505,370.50492 C 149.43311,395.42713 53.733501,340.21291 28.811027,247.20089 C 3.8885523,154.18888 59.18478,58.407526 152.19674,33.485052 C 166.72986,29.590907 181.25882,27.652868 195.64357,27.512267 z"/>
      <g id="g4262" transform="matrix(0.2344205,0.8748698,0.8748698,-0.2344205,-487.59418,290.36508)">
        <path style="fill:#cccccc;fill-opacity:1;stroke:none;stroke-width:4;stroke-miterlimit:4;stroke-dashoffset:0;stroke-opacity:1" id="path4264" d="M 107.6644,823.03558 L 123.42132,820.25721 L 152.70072,948.87692 L 123.15648,954.08636 L 107.6644,823.03558 z"/>
        <path style="fill:#cccccc;fill-opacity:1;stroke:none;stroke-width:4;stroke-miterlimit:4;stroke-dashoffset:0;stroke-opacity:1" id="path4266" d="M 80.569176,820.34403 L 96.326105,823.1224 L 79.849212,953.99953 L 50.30497,948.79009 L 80.569176,820.34403 z"/>
      </g>
      <g id="g4268" transform="matrix(0.2344205,0.8748698,-0.8748698,0.2344205,825.01107,-61.346132)">
        <path style="fill:#cccccc;fill-opacity:1;stroke:none;stroke-width:4;stroke-miterlimit:4;stroke-dashoffset:0;stroke-opacity:1" id="path4270" d="M 107.6644,823.03558 L 123.42132,820.25721 L 152.70072,948.87692 L 123.15648,954.08636 L 107.6644,823.03558 z"/>
        <path style="fill:#cccccc;fill-opacity:1;stroke:none;stroke-width:4;stroke-miterlimit:4;stroke-dashoffset:0;stroke-opacity:1" id="path4272" d="M 80.569176,820.34403 L 96.326105,823.1224 L 79.849212,953.99953 L 50.30497,948.79009 L 80.569176,820.34403 z"/>
      </g>
      <g id="g4530" transform="matrix(2.6182645,0,0,2.6182645,841.37305,-3045.594)">
        <path style="fill:#cccccc;fill-opacity:1;stroke:none;stroke-width:4;stroke-miterlimit:4;stroke-dashoffset:0;stroke-opacity:1" id="path4278" d="M -237.31567,1264.4992 L -232.29939,1262.1601 L -211.00026,1302.5158 L -220.40579,1306.9016 L -237.31567,1264.4992 z"/>
        <path style="fill:#cccccc;fill-opacity:1;stroke:none;stroke-width:4;stroke-miterlimit:4;stroke-dashoffset:0;stroke-opacity:1" id="path4280" d="M -246.61028,1266.0258 L -241.09649,1265.5434 L -234.8843,1310.75 L -245.22266,1311.6545 L -246.61028,1266.0258 z"/>
      </g>
      <g id="g4282" transform="matrix(0.8748698,-0.2344205,-0.2344205,-0.8748698,284.13156,881.2448)">
        <path style="fill:#cccccc;fill-opacity:1;stroke:none;stroke-width:4;stroke-miterlimit:4;stroke-dashoffset:0;stroke-opacity:1" id="path4284" d="M 107.6644,823.03558 L 123.42132,820.25721 L 152.70072,948.87692 L 123.15648,954.08636 L 107.6644,823.03558 z"/>
        <path style="fill:#cccccc;fill-opacity:1;stroke:none;stroke-width:4;stroke-miterlimit:4;stroke-dashoffset:0;stroke-opacity:1" id="path4286" d="M 80.569176,820.34403 L 96.326105,823.1224 L 79.849212,953.99953 L 50.30497,948.79009 L 80.569176,820.34403 z"/>
      </g>
      <g transform="matrix(0.8748698,-0.2344205,0.2344205,0.8748698,92.539846,-496.94729)" id="g4251" style="fill:#ffffff">
        <path d="M -94,745.36218 C -94,759.1693 -105.19288,770.36218 -119,770.36218 C -132.80712,770.36218 -144,759.1693 -144,745.36218 C -144,731.55506 -132.80712,720.36218 -119,720.36218 C -105.19288,720.36218 -94,731.55506 -94,745.36218 z" id="path4253" style="opacity:1;fill:#ffffff;fill-opacity:1;stroke:none;stroke-width:4;stroke-miterlimit:4;stroke-dasharray:none;stroke-dashoffset:0;stroke-opacity:1"/>
        <path d="M -94,745.36218 C -94,759.1693 -105.19288,770.36218 -119,770.36218 C -132.80712,770.36218 -144,759.1693 -144,745.36218 C -144,731.55506 -132.80712,720.36218 -119,720.36218 C -105.19288,720.36218 -94,731.55506 -94,745.36218 z" transform="translate(62,0)" id="path4255" style="opacity:1;fill:#ffffff;fill-opacity:1;stroke:none;stroke-width:4;stroke-miterlimit:4;stroke-dasharray:none;stroke-dashoffset:0;stroke-opacity:1"/>
        <path d="M -94,745.36218 C -94,759.1693 -105.19288,770.36218 -119,770.36218 C -132.80712,770.36218 -144,759.1693 -144,745.36218 C -144,731.55506 -132.80712,720.36218 -119,720.36218 C -105.19288,720.36218 -94,731.55506 -94,745.36218 z" transform="translate(0,60)" id="path4257" style="opacity:1;fill:#ffffff;fill-opacity:1;stroke:none;stroke-width:4;stroke-miterlimit:4;stroke-dasharray:none;stroke-dashoffset:0;stroke-opacity:1"/>
        <path d="M -94,745.36218 C -94,759.1693 -105.19288,770.36218 -119,770.36218 C -132.80712,770.36218 -144,759.1693 -144,745.36218 C -144,731.55506 -132.80712,720.36218 -119,720.36218 C -105.19288,720.36218 -94,731.55506 -94,745.36218 z" transform="translate(62,60)" id="path4259" style="opacity:1;fill:#ffffff;fill-opacity:1;stroke:none;stroke-width:4;stroke-miterlimit:4;stroke-dasharray:none;stroke-dashoffset:0;stroke-opacity:1"/>
      </g>
      <g transform="matrix(2.6182645,0,0,2.6182645,1011.2035,-1173.1309)" id="g4290">
        <path d="M -300.89685,587.29266 C -300.89685,589.58086 -302.75181,591.43582 -305.04001,591.43582 C -307.32821,591.43582 -309.18317,589.58086 -309.18317,587.29266 C -309.18317,585.00446 -307.32821,583.1495 -305.04001,583.1495 C -302.75181,583.1495 -300.89685,585.00446 -300.89685,587.29266 z" transform="matrix(0.5538427,0,0,0.5538427,-136.35477,266.81545)" id="path4292" style="opacity:1;fill:#ffffff;fill-opacity:1;stroke:#cccccc;stroke-width:1;stroke-miterlimit:4;stroke-dasharray:none;stroke-dashoffset:0;stroke-opacity:1"/>
        <path d="M -300.89685,587.29266 C -300.89685,589.58086 -302.75181,591.43582 -305.04001,591.43582 C -307.32821,591.43582 -309.18317,589.58086 -309.18317,587.29266 C -309.18317,585.00446 -307.32821,583.1495 -305.04001,583.1495 C -302.75181,583.1495 -300.89685,585.00446 -300.89685,587.29266 z" transform="matrix(0.5538427,0,0,0.5538427,-113.30845,260.34177)" id="path4294" style="opacity:1;fill:#ffffff;fill-opacity:1;stroke:#cccccc;stroke-width:1;stroke-miterlimit:4;stroke-dasharray:none;stroke-dashoffset:0;stroke-opacity:1"/>
      </g>
      <g transform="matrix(2.6182645,0,0,2.6182645,922.18254,-1508.2688)" id="g4296">
        <path d="M -300.89685,587.29266 C -300.89685,589.58086 -302.75181,591.43582 -305.04001,591.43582 C -307.32821,591.43582 -309.18317,589.58086 -309.18317,587.29266 C -309.18317,585.00446 -307.32821,583.1495 -305.04001,583.1495 C -302.75181,583.1495 -300.89685,585.00446 -300.89685,587.29266 z" transform="matrix(0.5538427,0,0,0.5538427,-136.35477,266.81545)" id="path4298" style="opacity:1;fill:#ffffff;fill-opacity:1;stroke:#cccccc;stroke-width:1;stroke-miterlimit:4;stroke-dasharray:none;stroke-dashoffset:0;stroke-opacity:1"/>
        <path d="M -300.89685,587.29266 C -300.89685,589.58086 -302.75181,591.43582 -305.04001,591.43582 C -307.32821,591.43582 -309.18317,589.58086 -309.18317,587.29266 C -309.18317,585.00446 -307.32821,583.1495 -305.04001,583.1495 C -302.75181,583.1495 -300.89685,585.00446 -300.89685,587.29266 z" transform="matrix(0.5538427,0,0,0.5538427,-113.30845,260.34177)" id="path4300" style="opacity:1;fill:#ffffff;fill-opacity:1;stroke:#cccccc;stroke-width:1;stroke-miterlimit:4;stroke-dasharray:none;stroke-dashoffset:0;stroke-opacity:1"/>
      </g>
      <g transform="matrix(0,2.6182645,-2.6182645,0,1571.4387,1015.0811)" id="g4302">
        <path d="M -300.89685,587.29266 C -300.89685,589.58086 -302.75181,591.43582 -305.04001,591.43582 C -307.32821,591.43582 -309.18317,589.58086 -309.18317,587.29266 C -309.18317,585.00446 -307.32821,583.1495 -305.04001,583.1495 C -302.75181,583.1495 -300.89685,585.00446 -300.89685,587.29266 z" transform="matrix(0.5538427,0,0,0.5538427,-136.35477,266.81545)" id="path4304" style="opacity:1;fill:#ffffff;fill-opacity:1;stroke:#cccccc;stroke-width:1;stroke-miterlimit:4;stroke-dasharray:none;stroke-dashoffset:0;stroke-opacity:1"/>
        <path d="M -300.89685,587.29266 C -300.89685,589.58086 -302.75181,591.43582 -305.04001,591.43582 C -307.32821,591.43582 -309.18317,589.58086 -309.18317,587.29266 C -309.18317,585.00446 -307.32821,583.1495 -305.04001,583.1495 C -302.75181,583.1495 -300.89685,585.00446 -300.89685,587.29266 z" transform="matrix(0.5538427,0,0,0.5538427,-113.30845,260.34177)" id="path4306" style="opacity:1;fill:#ffffff;fill-opacity:1;stroke:#cccccc;stroke-width:1;stroke-miterlimit:4;stroke-dasharray:none;stroke-dashoffset:0;stroke-opacity:1"/>
      </g>
      <g transform="matrix(0,2.6182645,-2.6182645,0,1904.5426,926.73819)" id="g4308">
        <path d="M -300.89685,587.29266 C -300.89685,589.58086 -302.75181,591.43582 -305.04001,591.43582 C -307.32821,591.43582 -309.18317,589.58086 -309.18317,587.29266 C -309.18317,585.00446 -307.32821,583.1495 -305.04001,583.1495 C -302.75181,583.1495 -300.89685,585.00446 -300.89685,587.29266 z" transform="matrix(0.5538427,0,0,0.5538427,-136.35477,266.81545)" id="path4310" style="opacity:1;fill:#ffffff;fill-opacity:1;stroke:#cccccc;stroke-width:1;stroke-miterlimit:4;stroke-dasharray:none;stroke-dashoffset:0;stroke-opacity:1"/>
        <path d="M -300.89685,587.29266 C -300.89685,589.58086 -302.75181,591.43582 -305.04001,591.43582 C -307.32821,591.43582 -309.18317,589.58086 -309.18317,587.29266 C -309.18317,585.00446 -307.32821,583.1495 -305.04001,583.1495 C -302.75181,583.1495 -300.89685,585.00446 -300.89685,587.29266 z" transform="matrix(0.5538427,0,0,0.5538427,-113.30845,260.34177)" id="path4312" style="opacity:1;fill:#ffffff;fill-opacity:1;stroke:#cccccc;stroke-width:1;stroke-miterlimit:4;stroke-dasharray:none;stroke-dashoffset:0;stroke-opacity:1"/>
      </g>
      <path style="fill:#ffffff;fill-opacity:1;stroke:#cccccc;stroke-width:2.61826444;stroke-miterlimit:4;stroke-dasharray:none;stroke-dashoffset:0;stroke-opacity:1" id="path4288" d="M 206.12601,202.02264 C 206.12994,206.89322 202.18267,210.84368 197.31209,210.84368 C 192.44155,210.84368 188.49428,206.89322 188.4982,202.02264 C 188.49428,197.15207 192.44155,193.20161 197.31209,193.20161 C 202.18267,193.20161 206.12994,197.15207 206.12601,202.02264 z"/>
    </g>
    <path id="path3464" d="M 195.40625 8.03125 C 179.42314 8.1875073 163.21041 10.329307 147.0625 14.65625 C 43.715817 42.347773 -17.69163 148.65369 10 252 C 37.691539 355.34683 144.09088 416.75431 247.4375 389.0625 C 350.78405 361.37091 412.19163 255.0338 384.5 151.6875 C 361.13508 64.488507 281.71464 7.1863358 195.40625 8.03125 z M 217.125 145.6875 C 227.20978 145.58693 236.48781 152.30798 239.21875 162.5 C 242.45543 174.57944 235.26693 186.98207 223.1875 190.21875 C 211.10808 193.45544 198.70543 186.29819 195.46875 174.21875 C 192.23209 162.13933 199.38931 149.70542 211.46875 146.46875 C 213.35617 145.96303 215.25745 145.70613 217.125 145.6875 z M 162.875 160.25 C 172.95978 160.14943 182.23781 166.83923 184.96875 177.03125 C 188.20545 189.11069 181.01693 201.51332 168.9375 204.75 C 156.85809 207.98668 144.45543 200.82944 141.21875 188.75 C 137.98208 176.67057 145.13931 164.23667 157.21875 161 C 159.10617 160.49428 161.00745 160.26863 162.875 160.25 z M 231.1875 198.1875 C 241.27228 198.08693 250.55031 204.77673 253.28125 214.96875 C 256.51793 227.04819 249.32943 239.48207 237.25 242.71875 C 225.17057 245.95544 212.76793 238.76694 209.53125 226.6875 C 206.29458 214.60808 213.45181 202.20542 225.53125 198.96875 C 227.41867 198.46303 229.31995 198.20613 231.1875 198.1875 z M 176.9375 212.71875 C 187.02229 212.61818 196.30031 219.30798 199.03125 229.5 C 202.26793 241.57944 195.11068 254.01332 183.03125 257.25 C 170.95182 260.48665 158.51793 253.32944 155.28125 241.25 C 152.04459 229.17059 159.20181 216.73667 171.28125 213.5 C 173.16867 212.99428 175.06995 212.73738 176.9375 212.71875 z M 274.21875 316.25 C 290.92095 316.1918 307.33461 318.53328 323 323.0625 C 311.46011 335.06336 298.13857 345.50449 283.28125 353.90625 L 263.625 316.625 C 267.16466 316.39655 270.7001 316.26226 274.21875 316.25 z M 241.75 319.4375 L 259.875 364.90625 C 254.26469 367.053 248.49151 368.94259 242.5625 370.53125 C 236.65321 372.11463 230.72452 373.36696 224.8125 374.3125 L 218.15625 325.71875 C 221.90798 324.43558 225.73814 323.26025 229.625 322.21875 C 233.66244 321.13694 237.71057 320.2195 241.75 319.4375 z M 197.75 334.15625 L 199.03125 376.5 C 181.95237 376.65915 165.16227 374.28276 149.15625 369.65625 C 162.93881 355.32119 179.3035 343.21143 197.75 334.15625 z " style="opacity:0.50000000000000000;fill:url(#linearGradient3110);fill-opacity:1;stroke:none;stroke-width:4;stroke-miterlimit:4;stroke-dasharray:none;stroke-dashoffset:0;stroke-opacity:1"/>
  </g>
</svg>